<svg xmlns="http://www.w3.org/2000/svg" width="192" height="192" viewBox="0 0 192 192">
  <rect width="192" height="192" rx="40" fill="#15803d"/>
  <!-- red flesh -->
  <path d="M 36 108 A 60 60 0 0 1 156 108 Z" fill="#dc2626"/>
  <!-- white rind -->
  <path d="M 36 108 A 60 60 0 0 1 156 108 L 152 112 A 56 56 0 0 0 40 112 Z" fill="#f0fdf4"/>
  <!-- green rind -->
  <path d="M 40 112 A 56 56 0 0 1 152 112 L 156 116 A 60 60 0 0 0 36 116 Z" fill="#16a34a"/>
  <!-- seeds -->
  <ellipse cx="78"  cy="98"  rx="4" ry="6" fill="#111" transform="rotate(-20 78 98)"/>
  <ellipse cx="96"  cy="93"  rx="4" ry="6" fill="#111"/>
  <ellipse cx="114" cy="98"  rx="4" ry="6" fill="#111" transform="rotate(20 114 98)"/>
  <ellipse cx="87"  cy="106" rx="3.5" ry="5.5" fill="#111" transform="rotate(-10 87 106)"/>
  <ellipse cx="105" cy="106" rx="3.5" ry="5.5" fill="#111" transform="rotate(10 105 106)"/>
  <!-- stem -->
  <path d="M 96 48 Q 106 40 110 30" stroke="#15803d" stroke-width="5" fill="none" stroke-linecap="round"/>
  <path d="M 96 48 Q 86 38 82 28" stroke="#15803d" stroke-width="3" fill="none" stroke-linecap="round"/>
</svg>
